<svg width="21" height="20" viewBox="0 0 21 20" fill="none" xmlns="http://www.w3.org/2000/svg">
<path fill-rule="evenodd" clip-rule="evenodd" d="M20.1488 17.8751C18.7209 15.4067 16.5206 13.6367 13.9528 12.7976C16.5636 11.2434 17.8142 8.13649 17.0082 5.20701C16.2022 2.27752 13.5383 0.247559 10.5 0.247559C7.46168 0.247559 4.7978 2.27752 3.99183 5.20701C3.18586 8.13649 4.43646 11.2434 7.0472 12.7976C4.47939 13.6357 2.27907 15.4057 0.85126 17.8751C0.708713 18.1075 0.703537 18.399 0.837741 18.6364C0.971945 18.8737 1.22439 19.0195 1.49703 19.0172C1.76968 19.0148 2.01958 18.8647 2.1497 18.6251C3.91595 15.5726 7.03782 13.7501 10.5 13.7501C13.9622 13.7501 17.0841 15.5726 18.8503 18.6251C18.9804 18.8647 19.2303 19.0148 19.503 19.0172C19.7756 19.0195 20.0281 18.8737 20.1623 18.6364C20.2965 18.399 20.2913 18.1075 20.1488 17.8751ZM5.25001 7.00011C5.25001 4.10061 7.60051 1.75011 10.5 1.75011C13.3995 1.75011 15.75 4.10061 15.75 7.00011C15.75 9.8996 13.3995 12.2501 10.5 12.2501C7.6018 12.247 5.25311 9.89832 5.25001 7.00011Z" fill="#121A0F"/>
</svg>
